<svg id="Capa_1" enable-background="new 0 0 512.003 512.003" height="512" viewBox="0 0 512.003 512.003" width="512" xmlns="http://www.w3.org/2000/svg"><g><g><path d="m301.943 309.01h133.885l31.048-213.447h-164.933l-43.742 106.723z" fill="#07485e"/><path d="m301.943 309.01h-133.885l-31.047-213.447h164.932z" fill="#0b799c"/></g><path d="m103.471 61.337 1.251 17.447h-104.719l-.003-42.647 72.88-.017 17.996 7.345z" fill="#ade232"/><g><path d="m301.943 373.711-15.323 15 15.323 15h210.06v-30z" fill="#5aa9e6"/><path d="m301.943 83.581-15.323 15.002 15.323 14.999h38.85v73.7h-38.85l-15.323 12.778 15.323 17.221h38.85v73.71h-38.85l-15.323 13.75 15.323 16.25h144.14l37.28-237.41zm118.48 207.41h-49.63v-73.71h61.2zm16.29-103.71h-65.92v-73.7h77.49z" fill="#5aa9e6"/><path d="m301.943 113.581v-30h-156.05l-35.626-47.56-37.387.099 50.901 68.199 29.922 190.482c-21.06 8.18-36.03 28.64-36.03 52.55 0 31.08 25.29 56.36 56.37 56.36h127.9v-30h-127.9c-14.54 0-26.37-11.83-26.37-26.36 0-14.54 11.83-26.36 26.37-26.36h127.9v-30h-38.85v-73.71h38.85v-30h-38.85v-73.7zm-68.85 177.41h-49.63l-11.57-73.71h61.2zm0-103.71h-65.91l-11.58-73.7h77.49z" fill="#86bfec"/></g><g><circle cx="217.329" cy="424.805" fill="#ecf9fd" r="36.095"/><path d="m217.329 475.982c-28.193 0-51.13-22.937-51.13-51.13s22.937-51.13 51.13-51.13 51.13 22.937 51.13 51.13-22.937 51.13-51.13 51.13zm0-72.26c-11.651 0-21.13 9.479-21.13 21.13s9.479 21.13 21.13 21.13 21.13-9.479 21.13-21.13-9.479-21.13-21.13-21.13z" fill="#0b799c"/></g><g><circle cx="403.941" cy="424.841" fill="#bdeaf9" r="36.095"/><path d="m403.941 475.971c-28.193 0-51.13-22.937-51.13-51.13s22.937-51.13 51.13-51.13 51.13 22.937 51.13 51.13-22.938 51.13-51.13 51.13zm0-72.26c-11.651 0-21.13 9.479-21.13 21.13s9.479 21.13 21.13 21.13 21.13-9.479 21.13-21.13-9.48-21.13-21.13-21.13z" fill="#07485e"/></g></g></svg>