<svg viewBox="0 -21 512 512" xmlns="http://www.w3.org/2000/svg"><path d="m160 10c-82.839844 0-150 67.160156-150 150 0 63.921875 39.988281 118.511719 96.320312 140.109375l96-130.21875 53.679688-125.140625c-26.011719-21.699219-59.480469-34.75-96-34.75zm0 0" fill="#f6d465"/><path d="m352 10c-36.519531 0-69.988281 13.050781-96 34.75l53.679688 125.140625 96 130.21875c56.332031-21.597656 96.320312-76.1875 96.320312-140.109375 0-82.839844-67.160156-150-150-150zm0 0" fill="#a9def8"/><path d="m405.679688 300.109375-149.679688-24.859375-149.679688 24.859375c-.210937 3.269531-.320312 6.570313-.320312 9.890625 0 82.839844 67.160156 150 150 150s150-67.160156 150-150c0-3.320312-.109375-6.621094-.320312-9.890625zm0 0" fill="#ff6c6c"/><path d="m309.679688 169.890625c53.398437 20.480469 92.121093 70.597656 96 130.21875-16.667969 6.390625-34.757813 9.890625-53.679688 9.890625-36.519531 0-69.988281-13.050781-96-34.75 30.628906-25.539062 50.921875-63.058594 53.679688-105.359375zm0 0" fill="#da90f8"/><path d="m310 160c0 3.320312-.109375 6.621094-.320312 9.890625-16.667969-6.390625-34.757813-9.890625-53.679688-9.890625s-37.011719 3.5-53.679688 9.890625c-.210937-3.269531-.320312-6.570313-.320312-9.890625 0-46.320312 21-87.738281 54-115.25 33 27.511719 54 68.929688 54 115.25zm0 0" fill="#6eba7b"/><path d="m309.679688 169.890625c-2.757813 42.300781-23.050782 79.820313-53.679688 105.359375-30.628906-25.539062-50.921875-63.058594-53.679688-105.359375 16.667969-6.390625 34.757813-9.890625 53.679688-9.890625s37.011719 3.5 53.679688 9.890625zm0 0" fill="#fff"/><path d="m202.320312 169.890625c2.757813 42.300781 23.050782 79.820313 53.679688 105.359375-26.011719 21.699219-59.480469 34.75-96 34.75-18.921875 0-37.011719-3.5-53.679688-9.890625 3.878907-59.621094 42.601563-109.738281 96-130.21875zm0 0" fill="#ff9f00"/><path d="m352 60c5.519531 0 10-4.480469 10-10s-4.480469-10-10-10-10 4.480469-10 10 4.480469 10 10 10zm0 0"/><path d="m256 410c-5.519531 0-10 4.480469-10 10s4.480469 10 10 10 10-4.480469 10-10-4.480469-10-10-10zm0 0"/><path d="m50 150c-5.519531 0-10 4.480469-10 10s4.480469 10 10 10 10-4.480469 10-10-4.480469-10-10-10zm0 0"/><path d="m358.53125 351.101562c-4.914062-2.519531-10.9375-.578124-13.460938 4.335938-11.3125 22.066406-30.246093 39.097656-53.316406 47.957031-5.15625 1.980469-7.730468 7.765625-5.75 12.921875 1.980469 5.15625 7.765625 7.730469 12.921875 5.75 27.671875-10.628906 50.378907-31.050781 63.941407-57.503906 2.523437-4.914062.578124-10.941406-4.335938-13.460938zm0 0"/><path d="m387.753906 66.605469c26.230469 10.078125 47.152344 30.867187 57.402344 57.042969 2.023438 5.15625 7.832031 7.671874 12.960938 5.664062 5.140624-2.015625 7.675781-7.816406 5.664062-12.957031-12.296875-31.394531-37.394531-56.332031-68.855469-68.417969-5.15625-1.980469-10.9375.59375-12.921875 5.746094-1.980468 5.15625.59375 10.941406 5.75 12.921875zm0 0"/><path d="m96.054688 306.691406c-1.855469 90.628906 71.507812 163.308594 159.945312 163.308594 88.558594 0 161.800781-72.804688 159.945312-163.308594 56.628907-24.679687 96.054688-81.121094 96.054688-146.691406 0-88.222656-71.777344-160-160-160-34.652344 0-68.429688 11.320312-96 32.011719-27.570312-20.691407-61.347656-32.011719-96-32.011719-88.222656 0-160 71.777344-160 160 0 65.570312 39.425781 122.011719 96.054688 146.691406zm159.945312-248.574218c27.121094 25.539062 42.921875 60.648437 43.945312 98-14.222656-4.058594-28.949218-6.117188-43.945312-6.117188s-29.722656 2.058594-43.945312 6.117188c1.023437-37.351563 16.820312-72.457032 43.945312-98zm-43 118.613281c13.839844-4.464844 28.265625-6.730469 43-6.730469s29.164062 2.265625 43 6.730469c-3.902344 32.371093-19.226562 62.6875-43 85.140625-23.773438-22.453125-39.101562-52.773438-43-85.140625zm105.105469 7.785156c42.125 20.894531 71.273437 61.925781 76.882812 108.757813-13.835937 4.460937-28.261719 6.726562-42.988281 6.726562-28.824219 0-56.953125-8.949219-80.386719-25.382812 24.785157-24.191407 41.175781-55.996094 46.492188-90.101563zm-124.210938 0c5.316407 34.105469 21.707031 65.914063 46.492188 90.101563-23.429688 16.433593-51.5625 25.382812-80.386719 25.382812-14.726562 0-29.152344-2.265625-42.988281-6.726562 5.613281-46.835938 34.761719-87.867188 76.882812-108.757813zm62.105469 265.484375c-75.898438 0-137.878906-60.707031-139.945312-136.113281 14.226562 4.058593 28.953124 6.113281 43.945312 6.113281 34.652344 0 68.429688-11.320312 96-32.011719 27.570312 20.691407 61.347656 32.011719 96 32.011719 14.992188 0 29.71875-2.054688 43.945312-6.113281-2.066406 75.40625-64.046874 136.113281-139.945312 136.113281zm236-290c0 53.199219-30.832031 102.070312-77.902344 125.476562-8.339844-53.8125-43.917968-100.230468-94.152344-122.164062.941407-45.910156-17.507812-87.949219-48.328124-117.929688 23.429687-16.433593 51.558593-25.382812 80.382812-25.382812 77.195312 0 140 62.804688 140 140zm-332-140c28.824219 0 56.953125 8.945312 80.382812 25.382812-30.820312 29.984376-49.269531 72.019532-48.328124 117.929688-50.230469 21.929688-85.8125 68.347656-94.152344 122.164062-47.074219-23.40625-77.902344-72.28125-77.902344-125.476562 0-77.195312 62.804688-140 140-140zm0 0"/><path d="m53.683594 129.996094c5.164062 1.984375 10.945312-.605469 12.921875-5.75 8.859375-23.070313 25.890625-42.003906 47.957031-53.316406 4.914062-2.523438 6.855469-8.546876 4.335938-13.460938-2.519532-4.914062-8.542969-6.859375-13.460938-4.335938-26.453125 13.5625-46.875 36.269532-57.5 63.941407-1.984375 5.15625.589844 10.941406 5.746094 12.921875zm0 0"/></svg>