<svg height="512" viewBox="0 0 64 64" width="512" xmlns="http://www.w3.org/2000/svg" xmlns:xlink="http://www.w3.org/1999/xlink"><linearGradient id="linear-gradient" gradientUnits="userSpaceOnUse" x2="62.073" y1="32" y2="32"><stop offset="0" stop-color="#b24592"/><stop offset="1" stop-color="#f15f79"/></linearGradient><linearGradient id="linear-gradient-2" x2="62.073" xlink:href="#linear-gradient" y1="53" y2="53"/><linearGradient id="linear-gradient-3" x2="62.073" xlink:href="#linear-gradient" y1="57" y2="57"/><linearGradient id="linear-gradient-5" x2="62.073" xlink:href="#linear-gradient" y1="47" y2="47"/><linearGradient id="linear-gradient-6" x2="62.073" xlink:href="#linear-gradient" y1="51" y2="51"/><linearGradient id="linear-gradient-7" x2="62.073" xlink:href="#linear-gradient" y1="49" y2="49"/><linearGradient id="linear-gradient-8" x2="62.073" xlink:href="#linear-gradient" y1="18" y2="18"/><linearGradient id="linear-gradient-11" x2="62.073" xlink:href="#linear-gradient" y1="23" y2="23"/><linearGradient id="linear-gradient-16" x2="62.073" xlink:href="#linear-gradient" y1="28" y2="28"/><linearGradient id="linear-gradient-19" x2="62.073" xlink:href="#linear-gradient" y1="8" y2="8"/><linearGradient id="linear-gradient-22" x2="62.073" xlink:href="#linear-gradient" y1="54" y2="54"/><linearGradient id="linear-gradient-24" x2="62.073" xlink:href="#linear-gradient" y1="41" y2="41"/><linearGradient id="linear-gradient-25" x2="62.073" xlink:href="#linear-gradient" y1="45" y2="45"/><g id="Gradient_outline" data-name="Gradient outline"><path d="m59 48h-8a2.966 2.966 0 0 0 -1 .184v-3.184a3 3 0 0 0 -3-3h-8a2.966 2.966 0 0 0 -1 .184v-40.184h-36v60h36v-6.184a2.966 2.966 0 0 0 1 .184h8a2.966 2.966 0 0 0 1-.184v3.184a3 3 0 0 0 3 3h8a3 3 0 0 0 3-3v-8a3 3 0 0 0 -3-3zm-23 12h-32v-46h32zm0-48h-32v-8h32zm12 41a1 1 0 0 1 -1 1h-8a1 1 0 0 1 -1-1v-8a1 1 0 0 1 1-1h8a1 1 0 0 1 1 1zm12 6a1 1 0 0 1 -1 1h-8a1 1 0 0 1 -1-1v-8a1 1 0 0 1 1-1h8a1 1 0 0 1 1 1z" fill="url(#linear-gradient)"/><path d="m54 52h2v2h-2z" fill="url(#linear-gradient-2)"/><path d="m56 56h2v2h-2z" fill="url(#linear-gradient-3)"/><path d="m52 56h2v2h-2z" fill="url(#linear-gradient-3)"/><path d="m40 46h2v2h-2z" fill="url(#linear-gradient-5)"/><path d="m44 50h2v2h-2z" fill="url(#linear-gradient-6)"/><path d="m42 48h2v2h-2z" fill="url(#linear-gradient-7)"/><g fill="url(#linear-gradient-8)"><path d="m6 17h4v2h-4z"/><path d="m12 17h2v2h-2z"/><path d="m16 17h8v2h-8z"/></g><path d="m6 22h8v2h-8z" fill="url(#linear-gradient-11)"/><path d="m16 22h2v2h-2z" fill="url(#linear-gradient-11)"/><path d="m20 22h6v2h-6z" fill="url(#linear-gradient-11)"/><path d="m32 17h2v2h-2z" fill="url(#linear-gradient-8)"/><path d="m32 22h2v2h-2z" fill="url(#linear-gradient-11)"/><path d="m6 27h4v2h-4z" fill="url(#linear-gradient-16)"/><path d="m12 27h4v2h-4z" fill="url(#linear-gradient-16)"/><path d="m18 27h5v2h-5z" fill="url(#linear-gradient-16)"/><path d="m6 7h5v2h-5z" fill="url(#linear-gradient-19)"/><path d="m13 7h4v2h-4z" fill="url(#linear-gradient-19)"/><path d="m19 7h2v2h-2z" fill="url(#linear-gradient-19)"/><path d="m12 56h-4v-6h-2v8h6z" fill="url(#linear-gradient-22)"/><path d="m14 56h2v2h-2z" fill="url(#linear-gradient-3)"/><path d="m28 40h2v2h-2z" fill="url(#linear-gradient-24)"/><path d="m25 44h2v2h-2z" fill="url(#linear-gradient-25)"/></g></svg>