<?xml version="1.0" standalone="no"?>
<!DOCTYPE svg PUBLIC "-//W3C//DTD SVG 20010904//EN"
 "http://www.w3.org/TR/2001/REC-SVG-20010904/DTD/svg10.dtd">
<svg version="1.0" xmlns="http://www.w3.org/2000/svg"
 width="741.000000pt" height="741.000000pt" viewBox="0 0 741.000000 741.000000"
 preserveAspectRatio="xMidYMid meet">

<g transform="translate(0.000000,741.000000) scale(0.100000,-0.100000)"
fill="#000000" stroke="none">
<path d="M3430 7399 c-454 -36 -892 -152 -1315 -348 -211 -98 -484 -268 -710
-443 -151 -116 -460 -424 -587 -584 -864 -1086 -1057 -2526 -508 -3796 190
-442 459 -830 816 -1178 405 -394 868 -676 1409 -855 421 -140 724 -189 1170
-189 443 0 751 49 1170 189 338 112 602 241 900 441 340 227 653 526 900 858
396 534 627 1119 712 1806 24 200 24 608 -1 810 -88 729 -350 1359 -794 1914
-112 140 -337 374 -467 486 -564 484 -1268 791 -2005 875 -166 19 -535 27
-690 14z m-197 -425 c24 -35 27 -45 18 -63 -17 -31 -45 -26 -80 14 -33 38 -39
63 -19 83 21 21 51 9 81 -34z m223 -6 c9 -31 -55 -91 -94 -86 -42 5 -43 45 0
80 41 34 84 37 94 6z m604 -98 c24 -13 26 -52 5 -70 -12 -10 -24 -10 -54 -1
-45 13 -66 8 -103 -27 -53 -49 -31 -136 40 -163 53 -20 112 15 133 78 10 30
14 34 42 31 30 -3 32 -5 31 -45 -1 -79 -86 -153 -175 -153 -161 0 -244 189
-136 306 54 58 153 78 217 44z m-1436 -24 c129 -39 212 -178 251 -419 16 -100
26 -236 51 -710 15 -279 15 -310 1 -324 -19 -19 -63 -10 -71 15 -3 9 -10 125
-16 257 -16 362 -39 690 -55 774 -45 232 -119 331 -248 331 -76 0 -119 -19
-156 -71 -72 -98 -83 -284 -41 -704 47 -479 46 -495 -6 -495 -35 0 -41 22 -59
220 -63 703 -62 849 9 988 63 123 201 180 340 138z m2224 -1 c93 -28 159 -107
187 -227 19 -81 19 -297 0 -528 -27 -333 -48 -545 -56 -567 -10 -27 -50 -31
-69 -8 -13 16 -12 41 30 495 23 252 30 432 20 518 -20 170 -84 242 -214 242
-130 0 -202 -90 -245 -307 -25 -125 -36 -264 -56 -703 -16 -334 -18 -356 -37
-372 -25 -22 -32 -22 -52 -2 -19 18 -20 69 -7 264 6 74 15 232 21 350 26 505
72 690 195 796 69 61 180 79 283 49z m-1620 -37 c19 -19 14 -40 -20 -75 -34
-35 -68 -42 -88 -18 -17 21 -4 49 38 79 41 29 53 31 70 14z m176 -43 c30 -38
31 -72 4 -89 -14 -8 -23 -5 -46 17 -44 42 -58 73 -42 92 21 26 55 18 84 -20z
m-853 -85 c27 -15 24 -52 -7 -81 -33 -31 -54 -71 -54 -104 0 -57 -49 -88 -80
-50 -32 39 19 181 80 223 38 26 36 25 61 12z m2227 -12 c22 -22 13 -48 -32
-91 -25 -23 -47 -55 -51 -72 -14 -67 -44 -90 -76 -59 -17 18 -20 29 -14 62 17
101 129 204 173 160z m-2910 -137 c92 -47 155 -171 113 -222 -16 -20 -22 -22
-43 -12 -19 9 -26 21 -31 53 -15 111 -144 155 -223 76 -43 -43 -52 -93 -28
-142 31 -61 64 -79 147 -79 70 0 72 -1 75 -27 5 -38 -29 -58 -101 -58 -232 0
-302 314 -92 411 53 25 135 24 183 0z m1471 -178 c67 -51 87 -123 52 -190 -30
-60 -78 -87 -147 -81 -47 4 -61 10 -91 41 -31 30 -37 44 -41 90 -5 57 9 97 46
130 44 40 133 45 181 10z m2258 -27 c88 -42 142 -140 128 -235 -13 -90 -79
-166 -164 -191 -26 -7 -36 -5 -52 11 -32 32 -23 48 43 77 59 26 88 69 88 132
0 134 -160 196 -248 96 -51 -58 -50 -128 0 -198 27 -37 -33 -76 -69 -46 -29
23 -53 91 -53 148 0 171 171 278 327 206z m-4300 -152 c7 -18 -23 -64 -42 -64
-18 0 -45 27 -45 46 0 8 9 23 20 34 17 17 24 18 41 10 11 -6 23 -18 26 -26z
m2713 -88 c28 -35 -11 -93 -47 -70 -36 22 -23 84 17 84 10 0 23 -7 30 -14z
m-2365 -240 c15 -11 17 -21 12 -61 -8 -54 -21 -75 -47 -75 -31 0 -43 26 -36
77 9 69 32 88 71 59z m4399 -58 c16 -26 -4 -53 -40 -53 -23 0 -30 5 -32 23 -2
13 -1 30 2 38 8 20 56 14 70 -8z m-2631 -47 c55 -13 146 -71 173 -111 37 -53
28 -110 -16 -110 -9 0 -36 23 -60 51 -24 28 -58 58 -76 65 -44 18 -138 18
-173 -1 -44 -22 -96 -89 -115 -148 -26 -77 -31 -278 -13 -489 16 -180 32 -243
75 -292 26 -30 137 -76 181 -76 40 0 63 -16 42 -30 -7 -4 -11 -11 -10 -16 7
-38 -17 -46 -31 -10 -13 34 -32 37 -56 8 -24 -30 -54 -26 -130 17 -63 37 -118
114 -138 196 -32 127 -46 468 -26 623 5 40 20 100 34 132 18 46 20 60 10 60
-8 0 -14 5 -14 11 0 6 -7 8 -16 5 -8 -3 -27 -3 -41 0 l-26 7 27 14 c15 8 50
17 79 20 29 3 68 15 87 27 80 50 154 65 233 47z m634 -6 c21 -9 61 -34 90 -55
29 -22 58 -40 65 -41 10 0 10 -2 1 -6 -10 -3 -10 -11 1 -32 26 -49 38 -154 38
-319 0 -113 -4 -167 -12 -177 -18 -21 -57 -18 -70 4 -6 11 -10 89 -9 183 0 90
-5 186 -11 213 -23 103 -103 161 -211 153 -81 -6 -129 -40 -168 -120 -40 -80
-54 -212 -49 -453 l3 -170 -32 -3 c-52 -5 -56 14 -56 263 -1 241 11 321 56
412 53 104 147 163 259 163 39 0 85 -7 105 -15z m-2523 -54 c14 -15 15 -24 6
-40 -20 -39 -140 -24 -140 17 0 29 21 42 70 42 34 0 52 -6 64 -19z m274 -20
c8 -5 12 -21 10 -37 -3 -28 -5 -29 -60 -32 -48 -3 -58 0 -72 19 -26 38 -5 59
57 59 29 0 58 -4 65 -9z m-175 -102 c6 -9 7 -36 3 -62 -9 -58 -37 -79 -67 -51
-16 15 -19 26 -13 63 4 25 11 52 17 59 13 17 47 12 60 -9z m4110 -13 c7 -19
-3 -87 -15 -102 -5 -7 -18 -10 -28 -7 -16 4 -20 14 -20 48 0 24 3 50 6 59 8
20 50 21 57 2z m-130 -156 c5 -4 6 -17 2 -29 -5 -17 -14 -21 -50 -21 -58 0
-91 30 -63 58 13 13 95 7 111 -8z m-3207 -11 c32 -6 91 -20 129 -31 39 -11
151 -37 250 -57 175 -35 180 -37 183 -62 2 -14 -4 -31 -12 -38 -19 -16 -61 -8
-306 56 -261 67 -287 72 -391 73 -184 0 -296 -65 -364 -212 -40 -87 -235 -966
-281 -1267 -22 -146 -19 -334 7 -417 37 -118 101 -193 214 -246 66 -31 76 -33
180 -33 102 0 114 2 170 30 38 19 86 56 133 103 70 71 78 85 210 350 138 278
167 323 235 359 40 21 119 23 357 5 96 -6 254 -14 350 -17 137 -4 177 -8 189
-20 14 -13 13 -17 -5 -36 -21 -20 -21 -20 -255 -5 -129 9 -307 21 -395 28
-148 11 -166 10 -208 -6 -26 -10 -57 -32 -70 -49 -14 -18 -70 -126 -126 -242
-55 -115 -115 -239 -133 -275 -45 -91 -160 -206 -250 -249 -114 -55 -247 -62
-367 -18 -160 58 -259 179 -296 358 -22 109 -14 293 20 474 60 319 145 727
211 1020 56 250 152 370 334 420 58 16 208 18 287 4z m2604 0 c183 -29 314
-153 365 -346 55 -208 219 -996 250 -1200 26 -173 17 -346 -22 -463 -32 -97
-123 -197 -223 -247 -193 -97 -401 -57 -570 112 -62 61 -79 106 -44 119 22 8
37 -2 78 -55 43 -57 140 -123 209 -144 139 -41 305 0 410 102 76 74 110 162
122 316 10 127 -22 328 -149 927 -19 91 -47 221 -61 290 -57 269 -86 349 -153
417 -96 98 -233 131 -425 102 -40 -6 -136 -29 -215 -51 -164 -45 -219 -51
-236 -25 -22 34 4 50 135 78 68 14 144 32 169 39 129 36 255 46 360 29z m883
-16 c13 -8 7 -32 -10 -41 -24 -12 -90 -3 -104 14 -9 11 -8 18 1 29 10 12 24
14 59 9 25 -4 49 -8 54 -11z m-185 -99 c10 -18 0 -80 -16 -96 -18 -18 -42 3
-42 39 0 61 36 96 58 57z m-4189 -178 c9 -11 10 -20 1 -36 -13 -25 -43 -23
-48 3 -8 42 23 63 47 33z m3296 -83 c27 -20 65 -89 65 -118 0 -32 -39 -101
-64 -115 -48 -25 -62 14 -21 62 32 38 32 81 0 113 -35 36 -79 33 -116 -6 -32
-35 -62 -35 -67 -1 -4 28 11 48 57 73 43 23 108 19 146 -8z m-2260 -8 c65 -12
84 -20 103 -43 24 -27 24 -41 9 -177 -2 -17 8 -22 63 -33 120 -23 143 -61 117
-194 -14 -70 -22 -88 -48 -112 -29 -26 -37 -28 -85 -23 -68 7 -94 21 -94 53 0
34 35 49 83 36 26 -7 39 -7 43 0 12 19 31 126 25 136 -3 5 -46 18 -95 28 -58
13 -93 25 -100 36 -8 13 -6 39 6 100 21 100 18 105 -69 114 -70 8 -64 15 -83
-104 -15 -91 -24 -97 -120 -77 -114 24 -117 23 -129 -35 -14 -67 -14 -100 2
-104 6 -2 45 -9 86 -15 95 -15 105 -23 98 -81 -3 -25 -9 -70 -13 -101 -7 -64
-8 -63 79 -74 56 -7 56 -7 62 21 14 66 44 89 76 58 21 -21 21 -23 5 -78 -23
-77 -45 -91 -137 -82 -128 12 -176 47 -171 125 2 25 4 64 5 86 l2 40 -60 11
c-78 14 -104 28 -121 69 -12 29 -11 44 3 116 22 108 49 142 115 141 25 -1 64
-5 87 -11 47 -10 47 -10 56 44 13 77 27 106 59 126 37 23 40 23 141 4z m1769
-12 c80 -5 96 -8 82 -18 -14 -11 -6 -20 59 -70 41 -31 117 -101 168 -155 88
-93 96 -98 151 -110 59 -12 62 -20 19 -55 -9 -8 -4 -23 23 -65 61 -93 134
-255 150 -332 37 -174 -18 -357 -181 -598 -137 -204 -282 -373 -399 -469 -226
-185 -456 -275 -761 -301 -399 -33 -792 67 -1044 266 -89 70 -107 97 -86 129
21 33 44 29 95 -19 108 -101 300 -198 485 -247 81 -21 117 -23 364 -27 289 -4
343 1 471 42 286 91 484 247 726 570 32 43 66 88 75 100 41 52 121 206 143
275 59 179 39 311 -75 499 -113 184 -327 405 -457 471 -51 26 -148 39 -217 30
-58 -9 -285 -122 -412 -205 -132 -88 -197 -176 -173 -238 17 -45 107 -80 205
-80 113 0 213 34 358 121 32 19 64 32 72 29 8 -3 40 -45 71 -93 31 -48 72
-111 90 -138 19 -28 34 -57 34 -66 0 -22 -27 -43 -85 -64 -259 -94 -485 -292
-551 -483 -11 -30 -27 -58 -36 -63 -26 -14 -58 6 -58 36 0 31 40 136 73 195
24 40 25 46 11 62 -22 24 -9 38 35 38 29 0 44 7 72 36 18 19 67 61 106 92 56
43 69 58 58 65 -18 10 -20 53 -2 64 6 4 32 15 57 24 32 11 44 21 42 32 -2 13
5 17 28 17 30 0 37 -11 24 -44 -4 -10 -18 -16 -40 -16 -38 0 -89 -38 -76 -57
5 -8 28 -1 82 25 41 20 90 42 108 49 17 6 32 15 32 20 0 4 -22 43 -49 85 l-49
76 -74 -39 c-128 -68 -219 -94 -328 -94 -123 0 -186 21 -250 84 -52 50 -68 93
-56 156 9 45 110 173 169 214 53 36 265 161 274 161 4 0 38 17 77 37 39 20 85
40 101 44 40 9 147 10 269 2z m-1099 -15 c27 -12 31 -23 14 -34 -14 -9 -59 16
-59 33 0 16 11 16 45 1z m599 -43 c-4 -8 -11 -12 -16 -9 -6 4 -5 10 3 15 19
12 19 11 13 -6z m1276 -180 c61 -31 88 -122 55 -185 -66 -128 -265 -86 -265
56 0 104 118 177 210 129z m-1652 -570 c26 -6 31 -52 6 -62 -8 -3 -61 -2 -117
3 -89 8 -102 11 -106 28 -2 11 3 24 11 30 14 11 159 11 206 1z m432 0 c10 -12
9 -20 -4 -40 -17 -25 -19 -26 -124 -23 l-107 3 0 30 c0 26 4 31 35 36 74 13
187 10 200 -6z m1468 2 c12 -14 72 -325 72 -374 0 -22 -6 -36 -16 -40 -24 -9
-41 20 -49 80 -4 29 -18 105 -31 171 -27 135 -29 162 -11 169 20 8 24 8 35 -6z
m-3476 -28 c3 -9 -41 -249 -69 -379 -10 -42 -46 -51 -51 -11 -5 30 60 369 74
393 8 12 42 10 46 -3z m2958 -234 c0 -8 -4 -15 -8 -15 -5 0 -9 7 -9 15 0 8 4
15 9 15 4 0 8 -7 8 -15z m593 -345 c-3 -99 -42 -170 -76 -142 -12 11 -12 20 4
69 11 31 19 70 19 88 0 38 7 47 35 43 18 -3 20 -9 18 -58z m-3617 -20 c7 -25
21 -67 31 -93 15 -40 16 -49 4 -56 -22 -14 -36 -4 -59 42 -24 47 -38 118 -28
142 11 30 39 12 52 -35z m2574 -120 c15 -27 3 -46 -67 -110 -70 -65 -201 -151
-285 -189 -183 -83 -364 -115 -617 -109 -188 4 -221 12 -221 51 0 42 12 45
203 39 278 -7 432 22 628 118 97 48 171 99 259 178 50 45 84 53 100 22z
m-2704 -509 c23 -10 54 -36 70 -57 l29 -37 3 -320 3 -320 55 7 c30 3 95 9 143
13 l88 6 7 135 c3 74 6 171 6 214 0 118 33 181 115 219 96 45 206 5 256 -93
14 -28 19 -58 19 -123 0 -93 -10 -125 -39 -125 -35 0 -45 28 -46 120 0 79 -2
91 -24 114 -48 51 -114 54 -165 8 -31 -28 -34 -51 -37 -268 -2 -244 -5 -263
-33 -274 -12 -4 -105 -16 -208 -25 -151 -14 -191 -15 -203 -5 -13 11 -15 61
-15 350 l0 338 -35 31 c-54 47 -127 39 -172 -19 -20 -26 -22 -89 -28 -888 l-6
-773 34 -34 c40 -40 86 -46 138 -19 56 28 59 50 59 409 0 194 4 334 10 345 7
14 26 19 82 24 105 10 257 25 300 31 69 9 70 5 66 -271 l-3 -243 31 -32 c56
-56 149 -38 179 34 9 24 15 146 20 462 4 237 11 438 16 448 6 9 18 17 28 17
44 0 44 -7 39 -473 -5 -413 -7 -446 -25 -488 -58 -131 -234 -159 -325 -51 -46
55 -51 88 -46 305 4 140 2 200 -6 203 -17 7 -267 -23 -277 -33 -4 -4 -9 -153
-11 -330 l-3 -321 -30 -44 c-43 -61 -104 -90 -177 -86 -70 5 -121 40 -156 109
l-23 44 5 595 c9 894 14 1047 36 1090 10 19 26 43 37 52 53 48 149 61 219 29z
m3855 3 c65 -19 81 -31 77 -57 -5 -36 -31 -42 -97 -22 -79 24 -127 18 -326
-40 -244 -71 -234 -59 -240 -301 -9 -418 -7 -1131 4 -1152 17 -31 90 -78 239
-154 156 -78 220 -95 301 -79 168 34 268 152 313 370 18 87 19 131 16 545 -4
438 -4 453 -26 510 -12 33 -36 84 -52 113 -35 62 -37 79 -10 93 33 18 57 -4
99 -93 69 -141 71 -159 71 -634 0 -246 -4 -454 -11 -500 -28 -205 -128 -376
-258 -443 -63 -32 -168 -53 -233 -46 -71 7 -181 50 -328 129 -130 71 -194 127
-209 185 -8 27 -9 239 -3 693 l7 654 25 45 c34 60 72 83 203 124 250 79 335
90 438 60z m-1093 -245 c58 -15 72 -25 72 -55 0 -33 -29 -46 -76 -32 -25 7
-108 9 -231 5 -159 -4 -198 -8 -219 -22 -53 -34 -54 -45 -54 -560 0 -452 1
-478 19 -514 27 -53 70 -70 117 -47 54 25 64 61 64 235 0 82 3 156 6 165 10
25 224 23 246 -1 44 -50 52 -85 58 -240 6 -173 16 -200 84 -217 30 -8 41 -6
64 11 46 34 52 57 52 208 0 147 -13 222 -50 301 -26 52 -26 55 10 111 80 126
88 296 20 427 -29 55 -30 59 -14 77 26 29 51 23 78 -19 84 -134 87 -337 6
-495 l-29 -58 18 -43 c30 -69 41 -142 45 -291 4 -174 -7 -216 -68 -273 -54
-50 -112 -62 -172 -37 -98 41 -123 95 -124 267 0 94 -4 138 -16 168 l-17 41
-55 -3 -56 -3 -1 -140 c-2 -160 -15 -201 -81 -251 -54 -42 -134 -45 -191 -8
-24 16 -52 47 -67 75 l-26 47 0 515 0 515 33 48 c50 74 74 88 175 95 152 10
332 9 380 -2z m-1199 -23 c48 -25 73 -68 176 -296 93 -207 157 -348 216 -475
109 -236 119 -264 119 -328 0 -52 -5 -71 -29 -109 -56 -89 -164 -112 -251 -54
-32 21 -49 45 -87 126 l-47 100 -176 -6 c-96 -4 -178 -9 -182 -13 -3 -3 -25
-49 -47 -101 -58 -133 -109 -180 -196 -180 -106 0 -197 110 -182 221 2 20 29
94 58 165 52 123 55 129 83 129 53 0 52 -21 -3 -153 -62 -149 -67 -198 -22
-243 23 -22 39 -29 69 -29 53 0 75 26 132 163 33 79 50 109 65 112 11 3 112 9
225 14 146 6 210 5 223 -3 10 -6 39 -58 65 -116 42 -93 52 -107 86 -124 36
-17 40 -18 72 -3 44 21 68 68 61 121 -7 58 -414 951 -450 988 -22 21 -38 28
-67 28 -57 0 -91 -34 -132 -132 -178 -420 -212 -497 -225 -502 -23 -9 -53 12
-53 37 1 12 22 74 49 137 203 486 207 495 285 532 47 22 116 19 165 -6z m2232
-88 c29 -16 47 -37 67 -77 l27 -56 0 -445 0 -445 -31 -66 c-43 -89 -78 -114
-164 -114 -56 0 -76 6 -145 40 l-80 40 -3 129 c-3 140 3 159 47 154 l26 -3 3
-112 3 -113 47 -24 c106 -54 156 -43 195 42 21 45 22 62 25 449 4 438 1 466
-49 516 -30 29 -32 30 -109 24 -43 -3 -83 -8 -89 -12 -8 -4 -11 -107 -11 -315
0 -267 -2 -311 -16 -324 -36 -36 -71 -8 -68 55 1 24 2 178 3 341 1 343 -11
308 118 333 94 17 152 13 204 -17z m-1061 -160 c53 -36 72 -81 68 -160 -3 -48
-9 -75 -24 -95 -46 -62 -126 -92 -154 -58 -19 23 -8 49 30 67 49 24 70 54 70
97 0 61 -27 81 -109 81 l-68 0 -7 -32 c-4 -18 -4 -58 0 -90 9 -82 -1 -126 -32
-134 -48 -12 -54 5 -54 167 0 121 3 150 16 163 12 13 39 16 123 16 96 0 112
-3 141 -22z m-1226 -150 c28 -43 85 -188 80 -202 -7 -18 -32 -28 -54 -21 -9 3
-25 23 -35 45 -10 22 -21 40 -25 40 -8 0 -71 -152 -68 -165 2 -6 51 -10 122
-10 102 0 120 -2 130 -17 31 -49 -55 -71 -259 -66 -98 3 -100 3 -103 28 -3 24
126 349 150 377 16 20 46 15 62 -9z m-499 -1123 c58 -23 125 -111 125 -162 0
-26 -19 -43 -47 -43 -19 0 -28 10 -43 45 -26 61 -69 87 -133 82 -38 -3 -56
-11 -80 -36 l-32 -31 -3 -143 c-2 -129 -1 -145 18 -175 25 -41 81 -66 129 -58
42 6 88 49 100 92 l9 31 -56 7 c-31 4 -62 12 -69 18 -18 14 -16 43 2 58 20 17
171 16 191 -1 24 -20 18 -128 -9 -180 -36 -68 -93 -103 -176 -107 -99 -6 -162
30 -206 117 -14 28 -18 64 -19 180 -1 164 8 203 56 252 75 74 151 91 243 54z
m1766 5 c23 -13 25 -43 3 -64 -12 -13 -39 -16 -125 -16 l-110 0 3 -87 3 -88
92 -3 c80 -2 94 -5 103 -22 8 -14 8 -26 0 -40 -9 -17 -22 -20 -88 -22 -42 0
-84 -1 -92 -2 -12 -1 -15 -18 -15 -91 l0 -90 106 0 c110 0 139 -9 139 -44 0
-36 -21 -41 -160 -41 -190 0 -175 -27 -175 312 l0 270 24 19 c20 16 40 19 148
19 68 0 133 -5 144 -10z m347 -11 c94 -46 139 -199 58 -199 -29 0 -46 18 -46
48 0 34 -52 82 -88 82 -45 0 -92 -43 -92 -85 0 -42 35 -73 120 -105 112 -42
165 -119 141 -207 -37 -136 -207 -179 -303 -77 -67 73 -63 177 7 160 16 -4 27
-15 31 -34 12 -55 16 -63 39 -78 50 -33 128 -10 141 41 14 56 0 73 -111 125
-113 55 -143 84 -152 149 -10 75 32 150 101 182 54 24 100 24 154 -2z m-1641
-1 c5 -7 20 -40 33 -73 13 -33 42 -105 65 -160 23 -55 61 -151 85 -213 l43
-113 -20 -21 c-36 -35 -57 -17 -96 80 l-35 87 -112 0 -112 0 -35 -87 c-39 -97
-60 -115 -96 -79 l-21 20 48 123 c27 68 55 137 62 153 7 17 34 82 59 145 26
63 51 123 56 133 11 20 62 23 76 5z m485 -5 c8 -10 34 -74 58 -143 23 -69 46
-129 50 -133 4 -4 29 54 55 130 26 76 52 144 58 151 13 16 52 15 67 -3 6 -7
37 -137 67 -286 l55 -273 -22 -18 c-20 -16 -26 -17 -43 -5 -16 11 -27 42 -48
143 -14 71 -32 156 -39 188 -14 70 -15 69 -65 -69 -67 -185 -100 -183 -170 10
-24 66 -46 113 -49 105 -5 -14 -76 -355 -76 -365 0 -14 -42 -25 -60 -15 -26
14 -26 39 4 186 88 431 83 414 120 414 13 0 30 -8 38 -17z"/>
<path d="M3217 6272 c-20 -22 -22 -73 -5 -90 18 -18 73 -14 91 6 23 25 21 58
-3 82 -25 25 -62 26 -83 2z"/>
<path d="M4975 4688 c-49 -42 -28 -129 34 -143 81 -18 135 82 76 140 -31 32
-75 32 -110 3z"/>
<path d="M3073 898 l-31 -83 65 -3 c36 -2 67 -1 69 1 5 5 -58 167 -65 167 -4
0 -21 -37 -38 -82z"/>
</g>
</svg>
